<mxfile host="app.diagrams.net" modified="2023-09-15T08:15:05.973Z" agent="Mozilla/5.0 (Windows NT 10.0; Win64; x64) AppleWebKit/537.36 (KHTML, like Gecko) Chrome/105.0.0.0 Safari/537.36" etag="GYQnIXCYlJGsb3jxQZPu" version="21.7.2" type="github">
  <diagram id="C5RBs43oDa-KdzZeNtuy" name="Page-1">
    <mxGraphModel dx="1434" dy="764" grid="1" gridSize="10" guides="1" tooltips="1" connect="1" arrows="1" fold="1" page="1" pageScale="1" pageWidth="827" pageHeight="1169" math="0" shadow="0">
      <root>
        <mxCell id="WIyWlLk6GJQsqaUBKTNV-0" />
        <mxCell id="WIyWlLk6GJQsqaUBKTNV-1" parent="WIyWlLk6GJQsqaUBKTNV-0" />
        <mxCell id="iYAkUWympESWK0J6A90y-1" value="" style="edgeStyle=orthogonalEdgeStyle;rounded=0;orthogonalLoop=1;jettySize=auto;html=1;" edge="1" parent="WIyWlLk6GJQsqaUBKTNV-1" source="WIyWlLk6GJQsqaUBKTNV-3" target="iYAkUWympESWK0J6A90y-0">
          <mxGeometry relative="1" as="geometry" />
        </mxCell>
        <mxCell id="WIyWlLk6GJQsqaUBKTNV-3" value="广告管理" style="rounded=1;whiteSpace=wrap;html=1;fontSize=12;glass=0;strokeWidth=1;shadow=0;" parent="WIyWlLk6GJQsqaUBKTNV-1" vertex="1">
          <mxGeometry x="160" y="80" width="120" height="40" as="geometry" />
        </mxCell>
        <mxCell id="iYAkUWympESWK0J6A90y-3" value="" style="edgeStyle=orthogonalEdgeStyle;rounded=0;orthogonalLoop=1;jettySize=auto;html=1;" edge="1" parent="WIyWlLk6GJQsqaUBKTNV-1" source="iYAkUWympESWK0J6A90y-0" target="iYAkUWympESWK0J6A90y-2">
          <mxGeometry relative="1" as="geometry" />
        </mxCell>
        <mxCell id="iYAkUWympESWK0J6A90y-0" value="新建组件" style="rounded=1;whiteSpace=wrap;html=1;glass=0;strokeWidth=1;shadow=0;" vertex="1" parent="WIyWlLk6GJQsqaUBKTNV-1">
          <mxGeometry x="360" y="70" width="120" height="60" as="geometry" />
        </mxCell>
        <mxCell id="iYAkUWympESWK0J6A90y-9" value="" style="edgeStyle=orthogonalEdgeStyle;rounded=0;orthogonalLoop=1;jettySize=auto;html=1;" edge="1" parent="WIyWlLk6GJQsqaUBKTNV-1" source="iYAkUWympESWK0J6A90y-2" target="iYAkUWympESWK0J6A90y-8">
          <mxGeometry relative="1" as="geometry" />
        </mxCell>
        <mxCell id="iYAkUWympESWK0J6A90y-2" value="新建积分膨胀组件" style="rounded=1;whiteSpace=wrap;html=1;glass=0;strokeWidth=1;shadow=0;" vertex="1" parent="WIyWlLk6GJQsqaUBKTNV-1">
          <mxGeometry x="560" y="70" width="120" height="60" as="geometry" />
        </mxCell>
        <mxCell id="iYAkUWympESWK0J6A90y-8" value="" style="rounded=1;whiteSpace=wrap;html=1;glass=0;strokeWidth=1;shadow=0;" vertex="1" parent="WIyWlLk6GJQsqaUBKTNV-1">
          <mxGeometry x="760" y="70" width="120" height="60" as="geometry" />
        </mxCell>
        <mxCell id="iYAkUWympESWK0J6A90y-13" value="" style="edgeStyle=orthogonalEdgeStyle;rounded=0;orthogonalLoop=1;jettySize=auto;html=1;" edge="1" parent="WIyWlLk6GJQsqaUBKTNV-1" source="iYAkUWympESWK0J6A90y-11" target="iYAkUWympESWK0J6A90y-12">
          <mxGeometry relative="1" as="geometry" />
        </mxCell>
        <mxCell id="iYAkUWympESWK0J6A90y-11" value="广告管理创建积分膨胀组件信息" style="rounded=1;whiteSpace=wrap;html=1;" vertex="1" parent="WIyWlLk6GJQsqaUBKTNV-1">
          <mxGeometry x="180" y="360" width="120" height="60" as="geometry" />
        </mxCell>
        <mxCell id="iYAkUWympESWK0J6A90y-15" value="" style="edgeStyle=orthogonalEdgeStyle;rounded=0;orthogonalLoop=1;jettySize=auto;html=1;" edge="1" parent="WIyWlLk6GJQsqaUBKTNV-1" source="iYAkUWympESWK0J6A90y-12" target="iYAkUWympESWK0J6A90y-14">
          <mxGeometry relative="1" as="geometry" />
        </mxCell>
        <mxCell id="iYAkUWympESWK0J6A90y-12" value="编辑积分膨胀活动标识&lt;br&gt;编辑积分膨胀活动名称" style="rounded=1;whiteSpace=wrap;html=1;" vertex="1" parent="WIyWlLk6GJQsqaUBKTNV-1">
          <mxGeometry x="370" y="360" width="140" height="60" as="geometry" />
        </mxCell>
        <mxCell id="iYAkUWympESWK0J6A90y-19" value="" style="edgeStyle=orthogonalEdgeStyle;rounded=0;orthogonalLoop=1;jettySize=auto;html=1;" edge="1" parent="WIyWlLk6GJQsqaUBKTNV-1" source="iYAkUWympESWK0J6A90y-14" target="iYAkUWympESWK0J6A90y-18">
          <mxGeometry relative="1" as="geometry" />
        </mxCell>
        <mxCell id="iYAkUWympESWK0J6A90y-14" value="服务端入库" style="rounded=1;whiteSpace=wrap;html=1;" vertex="1" parent="WIyWlLk6GJQsqaUBKTNV-1">
          <mxGeometry x="580" y="360" width="120" height="60" as="geometry" />
        </mxCell>
        <mxCell id="iYAkUWympESWK0J6A90y-17" value="保存" style="text;html=1;align=center;verticalAlign=middle;resizable=0;points=[];autosize=1;strokeColor=none;fillColor=none;" vertex="1" parent="WIyWlLk6GJQsqaUBKTNV-1">
          <mxGeometry x="510" y="360" width="50" height="30" as="geometry" />
        </mxCell>
        <mxCell id="iYAkUWympESWK0J6A90y-21" value="" style="edgeStyle=orthogonalEdgeStyle;rounded=0;orthogonalLoop=1;jettySize=auto;html=1;" edge="1" parent="WIyWlLk6GJQsqaUBKTNV-1" source="iYAkUWympESWK0J6A90y-18" target="iYAkUWympESWK0J6A90y-20">
          <mxGeometry relative="1" as="geometry" />
        </mxCell>
        <mxCell id="iYAkUWympESWK0J6A90y-18" value="服务端根据标识下发对应名称给用户端" style="rounded=1;whiteSpace=wrap;html=1;" vertex="1" parent="WIyWlLk6GJQsqaUBKTNV-1">
          <mxGeometry x="580" y="500" width="120" height="60" as="geometry" />
        </mxCell>
        <mxCell id="iYAkUWympESWK0J6A90y-20" value="&lt;p style=&quot;text-align:justify;mso-pagination:widow-orphan;margin-top:0pt;margin-bottom:0pt;mso-border-left-alt:none;mso-border-top-alt:none;mso-border-right-alt:none;mso-border-bottom-alt:none;mso-border-between:none;border-left:none;border-top:none;border-right:none;border-bottom:none;mso-border-between:none&quot;&gt;APP原生积分膨胀组件信息&lt;/p&gt;" style="rounded=1;whiteSpace=wrap;html=1;" vertex="1" parent="WIyWlLk6GJQsqaUBKTNV-1">
          <mxGeometry x="580" y="640" width="120" height="60" as="geometry" />
        </mxCell>
        <mxCell id="iYAkUWympESWK0J6A90y-22" value="数据返回" style="text;html=1;align=center;verticalAlign=middle;resizable=0;points=[];autosize=1;strokeColor=none;fillColor=none;" vertex="1" parent="WIyWlLk6GJQsqaUBKTNV-1">
          <mxGeometry x="640" y="584.5" width="70" height="30" as="geometry" />
        </mxCell>
        <mxCell id="iYAkUWympESWK0J6A90y-25" value="" style="edgeStyle=orthogonalEdgeStyle;rounded=0;orthogonalLoop=1;jettySize=auto;html=1;" edge="1" parent="WIyWlLk6GJQsqaUBKTNV-1" source="iYAkUWympESWK0J6A90y-23" target="iYAkUWympESWK0J6A90y-18">
          <mxGeometry relative="1" as="geometry" />
        </mxCell>
        <mxCell id="iYAkUWympESWK0J6A90y-23" value="&lt;p style=&quot;text-align:justify;mso-pagination:widow-orphan;margin-top:0pt;margin-bottom:0pt;mso-border-left-alt:none;mso-border-top-alt:none;mso-border-right-alt:none;mso-border-bottom-alt:none;mso-border-between:none;border-left:none;border-top:none;border-right:none;border-bottom:none;mso-border-between:none&quot;&gt;APP用活动标识请求信息&lt;/p&gt;" style="rounded=1;whiteSpace=wrap;html=1;" vertex="1" parent="WIyWlLk6GJQsqaUBKTNV-1">
          <mxGeometry x="380" y="500" width="120" height="60" as="geometry" />
        </mxCell>
        <mxCell id="iYAkUWympESWK0J6A90y-28" value="" style="edgeStyle=orthogonalEdgeStyle;rounded=0;orthogonalLoop=1;jettySize=auto;html=1;" edge="1" parent="WIyWlLk6GJQsqaUBKTNV-1" source="iYAkUWympESWK0J6A90y-26" target="iYAkUWympESWK0J6A90y-27">
          <mxGeometry relative="1" as="geometry" />
        </mxCell>
        <mxCell id="iYAkUWympESWK0J6A90y-26" value="广告管理" style="rounded=1;whiteSpace=wrap;html=1;" vertex="1" parent="WIyWlLk6GJQsqaUBKTNV-1">
          <mxGeometry x="90" y="810" width="140" height="60" as="geometry" />
        </mxCell>
        <mxCell id="iYAkUWympESWK0J6A90y-30" value="" style="edgeStyle=orthogonalEdgeStyle;rounded=0;orthogonalLoop=1;jettySize=auto;html=1;" edge="1" parent="WIyWlLk6GJQsqaUBKTNV-1" source="iYAkUWympESWK0J6A90y-27" target="iYAkUWympESWK0J6A90y-29">
          <mxGeometry relative="1" as="geometry" />
        </mxCell>
        <mxCell id="iYAkUWympESWK0J6A90y-35" value="" style="edgeStyle=orthogonalEdgeStyle;rounded=0;orthogonalLoop=1;jettySize=auto;html=1;" edge="1" parent="WIyWlLk6GJQsqaUBKTNV-1" source="iYAkUWympESWK0J6A90y-27" target="iYAkUWympESWK0J6A90y-34">
          <mxGeometry relative="1" as="geometry" />
        </mxCell>
        <mxCell id="iYAkUWympESWK0J6A90y-27" value="是否新增积分膨胀组件" style="rhombus;whiteSpace=wrap;html=1;rounded=1;" vertex="1" parent="WIyWlLk6GJQsqaUBKTNV-1">
          <mxGeometry x="80" y="940" width="160" height="80" as="geometry" />
        </mxCell>
        <mxCell id="iYAkUWympESWK0J6A90y-29" value="新建积分膨胀组件" style="rounded=1;whiteSpace=wrap;html=1;" vertex="1" parent="WIyWlLk6GJQsqaUBKTNV-1">
          <mxGeometry x="340" y="950" width="120" height="60" as="geometry" />
        </mxCell>
        <mxCell id="iYAkUWympESWK0J6A90y-31" value="否" style="text;html=1;align=center;verticalAlign=middle;resizable=0;points=[];autosize=1;strokeColor=none;fillColor=none;" vertex="1" parent="WIyWlLk6GJQsqaUBKTNV-1">
          <mxGeometry x="260" y="948" width="40" height="30" as="geometry" />
        </mxCell>
        <mxCell id="iYAkUWympESWK0J6A90y-37" value="" style="edgeStyle=orthogonalEdgeStyle;rounded=0;orthogonalLoop=1;jettySize=auto;html=1;" edge="1" parent="WIyWlLk6GJQsqaUBKTNV-1" source="iYAkUWympESWK0J6A90y-34" target="iYAkUWympESWK0J6A90y-36">
          <mxGeometry relative="1" as="geometry" />
        </mxCell>
        <mxCell id="iYAkUWympESWK0J6A90y-43" value="" style="edgeStyle=orthogonalEdgeStyle;rounded=0;orthogonalLoop=1;jettySize=auto;html=1;" edge="1" parent="WIyWlLk6GJQsqaUBKTNV-1" source="iYAkUWympESWK0J6A90y-34" target="iYAkUWympESWK0J6A90y-42">
          <mxGeometry relative="1" as="geometry" />
        </mxCell>
        <mxCell id="iYAkUWympESWK0J6A90y-34" value="是否编辑积分膨胀组件内容" style="rhombus;whiteSpace=wrap;html=1;rounded=1;" vertex="1" parent="WIyWlLk6GJQsqaUBKTNV-1">
          <mxGeometry x="80" y="1080" width="160" height="80" as="geometry" />
        </mxCell>
        <mxCell id="iYAkUWympESWK0J6A90y-36" value="" style="rhombus;whiteSpace=wrap;html=1;rounded=1;" vertex="1" parent="WIyWlLk6GJQsqaUBKTNV-1">
          <mxGeometry x="100" y="1240" width="120" height="80" as="geometry" />
        </mxCell>
        <mxCell id="iYAkUWympESWK0J6A90y-38" value="是" style="text;html=1;align=center;verticalAlign=middle;resizable=0;points=[];autosize=1;strokeColor=none;fillColor=none;" vertex="1" parent="WIyWlLk6GJQsqaUBKTNV-1">
          <mxGeometry x="170" y="1028" width="40" height="30" as="geometry" />
        </mxCell>
        <mxCell id="iYAkUWympESWK0J6A90y-39" value="是" style="text;html=1;align=center;verticalAlign=middle;resizable=0;points=[];autosize=1;strokeColor=none;fillColor=none;" vertex="1" parent="WIyWlLk6GJQsqaUBKTNV-1">
          <mxGeometry x="160" y="1188" width="40" height="30" as="geometry" />
        </mxCell>
        <mxCell id="iYAkUWympESWK0J6A90y-42" value="编辑积分膨胀内容" style="rounded=1;whiteSpace=wrap;html=1;" vertex="1" parent="WIyWlLk6GJQsqaUBKTNV-1">
          <mxGeometry x="340" y="1090" width="120" height="60" as="geometry" />
        </mxCell>
        <mxCell id="iYAkUWympESWK0J6A90y-44" value="否" style="text;html=1;align=center;verticalAlign=middle;resizable=0;points=[];autosize=1;strokeColor=none;fillColor=none;" vertex="1" parent="WIyWlLk6GJQsqaUBKTNV-1">
          <mxGeometry x="270" y="1088" width="40" height="30" as="geometry" />
        </mxCell>
        <mxCell id="iYAkUWympESWK0J6A90y-45" value="" style="rounded=1;whiteSpace=wrap;html=1;" vertex="1" parent="WIyWlLk6GJQsqaUBKTNV-1">
          <mxGeometry x="297.5" y="1719.5" width="190" height="300" as="geometry" />
        </mxCell>
        <mxCell id="iYAkUWympESWK0J6A90y-46" value="" style="rounded=1;whiteSpace=wrap;html=1;" vertex="1" parent="WIyWlLk6GJQsqaUBKTNV-1">
          <mxGeometry x="750" y="1719.5" width="210" height="300.5" as="geometry" />
        </mxCell>
        <mxCell id="iYAkUWympESWK0J6A90y-48" style="edgeStyle=orthogonalEdgeStyle;rounded=0;orthogonalLoop=1;jettySize=auto;html=1;entryX=0;entryY=0.5;entryDx=0;entryDy=0;" edge="1" parent="WIyWlLk6GJQsqaUBKTNV-1" source="iYAkUWympESWK0J6A90y-47" target="iYAkUWympESWK0J6A90y-45">
          <mxGeometry relative="1" as="geometry">
            <mxPoint x="250" y="1840" as="targetPoint" />
          </mxGeometry>
        </mxCell>
        <mxCell id="iYAkUWympESWK0J6A90y-47" value="Actor" style="shape=umlActor;verticalLabelPosition=bottom;verticalAlign=top;html=1;outlineConnect=0;" vertex="1" parent="WIyWlLk6GJQsqaUBKTNV-1">
          <mxGeometry x="110" y="1840" width="30" height="60" as="geometry" />
        </mxCell>
        <mxCell id="iYAkUWympESWK0J6A90y-49" value="/ads/components" style="text;html=1;align=center;verticalAlign=middle;resizable=0;points=[];autosize=1;strokeColor=none;fillColor=none;" vertex="1" parent="WIyWlLk6GJQsqaUBKTNV-1">
          <mxGeometry x="160" y="1840" width="110" height="30" as="geometry" />
        </mxCell>
        <mxCell id="iYAkUWympESWK0J6A90y-51" value="oms广告管理页面" style="text;html=1;strokeColor=none;fillColor=none;align=center;verticalAlign=middle;whiteSpace=wrap;rounded=0;" vertex="1" parent="WIyWlLk6GJQsqaUBKTNV-1">
          <mxGeometry x="335" y="1739" width="110" height="30" as="geometry" />
        </mxCell>
        <mxCell id="iYAkUWympESWK0J6A90y-52" value="新建积分膨胀组件" style="rounded=1;whiteSpace=wrap;html=1;" vertex="1" parent="WIyWlLk6GJQsqaUBKTNV-1">
          <mxGeometry x="335" y="1860" width="115" height="40" as="geometry" />
        </mxCell>
        <mxCell id="iYAkUWympESWK0J6A90y-53" value="编辑积分膨胀组件内容" style="rounded=1;whiteSpace=wrap;html=1;" vertex="1" parent="WIyWlLk6GJQsqaUBKTNV-1">
          <mxGeometry x="327.5" y="1937.5" width="125" height="50" as="geometry" />
        </mxCell>
        <mxCell id="iYAkUWympESWK0J6A90y-55" value="广告组件信息列表" style="rounded=1;whiteSpace=wrap;html=1;" vertex="1" parent="WIyWlLk6GJQsqaUBKTNV-1">
          <mxGeometry x="332.5" y="1790" width="120" height="30" as="geometry" />
        </mxCell>
        <mxCell id="iYAkUWympESWK0J6A90y-56" value="服务端" style="text;html=1;strokeColor=none;fillColor=none;align=center;verticalAlign=middle;whiteSpace=wrap;rounded=0;" vertex="1" parent="WIyWlLk6GJQsqaUBKTNV-1">
          <mxGeometry x="827" y="1739" width="60" height="30" as="geometry" />
        </mxCell>
        <mxCell id="iYAkUWympESWK0J6A90y-59" value="api/java/config/advert/saveOrUpdateAdvert" style="text;html=1;align=center;verticalAlign=middle;resizable=0;points=[];autosize=1;strokeColor=none;fillColor=none;" vertex="1" parent="WIyWlLk6GJQsqaUBKTNV-1">
          <mxGeometry x="490" y="1850" width="250" height="30" as="geometry" />
        </mxCell>
        <mxCell id="iYAkUWympESWK0J6A90y-67" value="" style="edgeStyle=orthogonalEdgeStyle;rounded=0;orthogonalLoop=1;jettySize=auto;html=1;" edge="1" parent="WIyWlLk6GJQsqaUBKTNV-1" source="iYAkUWympESWK0J6A90y-60" target="iYAkUWympESWK0J6A90y-66">
          <mxGeometry relative="1" as="geometry" />
        </mxCell>
        <mxCell id="iYAkUWympESWK0J6A90y-78" value="" style="edgeStyle=orthogonalEdgeStyle;rounded=0;orthogonalLoop=1;jettySize=auto;html=1;" edge="1" parent="WIyWlLk6GJQsqaUBKTNV-1" source="iYAkUWympESWK0J6A90y-60" target="iYAkUWympESWK0J6A90y-76">
          <mxGeometry relative="1" as="geometry" />
        </mxCell>
        <mxCell id="iYAkUWympESWK0J6A90y-79" value="更新" style="edgeLabel;html=1;align=center;verticalAlign=middle;resizable=0;points=[];" vertex="1" connectable="0" parent="iYAkUWympESWK0J6A90y-78">
          <mxGeometry x="0.3" y="-5" relative="1" as="geometry">
            <mxPoint x="10" y="6" as="offset" />
          </mxGeometry>
        </mxCell>
        <mxCell id="iYAkUWympESWK0J6A90y-60" value="新增积分膨胀组件信息" style="rounded=1;whiteSpace=wrap;html=1;" vertex="1" parent="WIyWlLk6GJQsqaUBKTNV-1">
          <mxGeometry x="790" y="1860" width="130" height="40" as="geometry" />
        </mxCell>
        <mxCell id="iYAkUWympESWK0J6A90y-62" value="api/java/config/details/getList?id={adverId}" style="text;html=1;align=center;verticalAlign=middle;resizable=0;points=[];autosize=1;strokeColor=none;fillColor=none;" vertex="1" parent="WIyWlLk6GJQsqaUBKTNV-1">
          <mxGeometry x="495" y="1930" width="250" height="30" as="geometry" />
        </mxCell>
        <mxCell id="iYAkUWympESWK0J6A90y-66" value="积分膨胀组件内容信息" style="whiteSpace=wrap;html=1;rounded=1;" vertex="1" parent="WIyWlLk6GJQsqaUBKTNV-1">
          <mxGeometry x="790" y="1942.5" width="130" height="45" as="geometry" />
        </mxCell>
        <mxCell id="iYAkUWympESWK0J6A90y-73" value="api/java/config/details/updateDetails" style="text;html=1;align=center;verticalAlign=middle;resizable=0;points=[];autosize=1;strokeColor=none;fillColor=none;" vertex="1" parent="WIyWlLk6GJQsqaUBKTNV-1">
          <mxGeometry x="510" y="1970" width="210" height="30" as="geometry" />
        </mxCell>
        <mxCell id="iYAkUWympESWK0J6A90y-76" value="广告组件信息列表数据" style="rounded=1;whiteSpace=wrap;html=1;" vertex="1" parent="WIyWlLk6GJQsqaUBKTNV-1">
          <mxGeometry x="790" y="1780" width="130" height="30" as="geometry" />
        </mxCell>
        <mxCell id="iYAkUWympESWK0J6A90y-77" value="api/java/config/advert/getAdvertList" style="text;html=1;align=center;verticalAlign=middle;resizable=0;points=[];autosize=1;strokeColor=none;fillColor=none;" vertex="1" parent="WIyWlLk6GJQsqaUBKTNV-1">
          <mxGeometry x="500" y="1769" width="210" height="30" as="geometry" />
        </mxCell>
        <mxCell id="iYAkUWympESWK0J6A90y-80" value="创建" style="text;html=1;strokeColor=none;fillColor=none;align=center;verticalAlign=middle;whiteSpace=wrap;rounded=0;" vertex="1" parent="WIyWlLk6GJQsqaUBKTNV-1">
          <mxGeometry x="840" y="1900" width="60" height="30" as="geometry" />
        </mxCell>
        <mxCell id="iYAkUWympESWK0J6A90y-88" value="" style="endArrow=classic;startArrow=classic;html=1;rounded=0;entryX=1.032;entryY=1.2;entryDx=0;entryDy=0;entryPerimeter=0;exitX=1.039;exitY=0.825;exitDx=0;exitDy=0;exitPerimeter=0;" edge="1" parent="WIyWlLk6GJQsqaUBKTNV-1" source="iYAkUWympESWK0J6A90y-45" target="iYAkUWympESWK0J6A90y-62">
          <mxGeometry width="50" height="50" relative="1" as="geometry">
            <mxPoint x="390" y="2020" as="sourcePoint" />
            <mxPoint x="440" y="1970" as="targetPoint" />
          </mxGeometry>
        </mxCell>
        <mxCell id="iYAkUWympESWK0J6A90y-89" value="" style="endArrow=classic;html=1;rounded=0;exitX=1.018;exitY=0.535;exitDx=0;exitDy=0;exitPerimeter=0;" edge="1" parent="WIyWlLk6GJQsqaUBKTNV-1" source="iYAkUWympESWK0J6A90y-45">
          <mxGeometry width="50" height="50" relative="1" as="geometry">
            <mxPoint x="390" y="2020" as="sourcePoint" />
            <mxPoint x="751" y="1878" as="targetPoint" />
          </mxGeometry>
        </mxCell>
        <mxCell id="iYAkUWympESWK0J6A90y-90" value="" style="endArrow=classic;startArrow=classic;html=1;rounded=0;entryX=0;entryY=0.25;entryDx=0;entryDy=0;exitX=1;exitY=0.25;exitDx=0;exitDy=0;" edge="1" parent="WIyWlLk6GJQsqaUBKTNV-1" source="iYAkUWympESWK0J6A90y-45" target="iYAkUWympESWK0J6A90y-46">
          <mxGeometry width="50" height="50" relative="1" as="geometry">
            <mxPoint x="390" y="2020" as="sourcePoint" />
            <mxPoint x="440" y="1970" as="targetPoint" />
          </mxGeometry>
        </mxCell>
      </root>
    </mxGraphModel>
  </diagram>
</mxfile>
